<svg xmlns="http://www.w3.org/2000/svg" viewBox="0 0 1600 900" width="1600" height="900">
<defs><radialGradient id="hglow62" cx="0.26" cy="0.36" r="0.9"><stop offset="0" stop-color="#FFFFFF" stop-opacity="0.95"/><stop offset="0.5" stop-color="#FFFFFF" stop-opacity="0.5"/><stop offset="1" stop-color="#FFFFFF" stop-opacity="0"/></radialGradient><linearGradient id="cyl63" x1="0" y1="0" x2="1" y2="0"><stop offset="0" stop-color="#858D9A" stop-opacity="1"/><stop offset="0.55" stop-color="#0E1014" stop-opacity="1"/><stop offset="1" stop-color="#0E1014" stop-opacity="1"/></linearGradient><radialGradient id="cap64" cx="0.35" cy="0.35" r="0.8"><stop offset="0" stop-color="#858D9A" stop-opacity="1"/><stop offset="0.7" stop-color="#0E1014" stop-opacity="1"/><stop offset="1" stop-color="#0E1014" stop-opacity="1"/></radialGradient><linearGradient id="hband65" x1="0" y1="0" x2="1" y2="0"><stop offset="0" stop-color="#858D9A" stop-opacity="1"/><stop offset="1" stop-color="#333944" stop-opacity="1"/></linearGradient><radialGradient id="sph66" cx="0.32" cy="0.28" r="0.85"><stop offset="0" stop-color="#858D9A" stop-opacity="1"/><stop offset="0.6" stop-color="#0E1014" stop-opacity="1"/><stop offset="1" stop-color="#0E1014" stop-opacity="1"/></radialGradient><radialGradient id="sph67" cx="0.32" cy="0.28" r="0.85"><stop offset="0" stop-color="#858D9A" stop-opacity="1"/><stop offset="0.6" stop-color="#0E1014" stop-opacity="1"/><stop offset="1" stop-color="#0E1014" stop-opacity="1"/></radialGradient></defs>
<rect width="1600" height="900" fill="#acb2bc"/>
<rect width="1600" height="900" fill="url(#hglow62)"/>
<ellipse cx="1180" cy="480" rx="90" ry="26" fill="#0E1014" stroke="#0E1014" stroke-width="3" stroke-opacity="0.14"/><rect x="1090" y="200" width="180" height="280" rx="0" fill="url(#cyl63)"/><line x1="1090" y1="200" x2="1090" y2="480" stroke="#0E1014" stroke-width="2" stroke-opacity="0.12"/><line x1="1270" y1="200" x2="1270" y2="480" stroke="#0E1014" stroke-width="2" stroke-opacity="0.12"/><ellipse cx="1180" cy="200" rx="90" ry="26" fill="url(#cap64)" stroke="#0E1014" stroke-width="3" stroke-opacity="0.14"/><path d="M 320 474 C 270 300 610 300 560 474" fill="none" stroke="url(#hband65)" stroke-width="50" stroke-linecap="round"/><circle cx="320" cy="480" r="108" fill="url(#sph66)" stroke="#0E1014" stroke-width="3" stroke-opacity="0.14"/><ellipse cx="320" cy="480" rx="62" ry="70" fill="#0b0d10" opacity="0.9"/><ellipse cx="284" cy="438" rx="22" ry="14" fill="#FFFFFF" opacity="0.3"/><circle cx="560" cy="480" r="108" fill="url(#sph67)" stroke="#0E1014" stroke-width="3" stroke-opacity="0.14"/><ellipse cx="560" cy="480" rx="62" ry="70" fill="#0b0d10" opacity="0.9"/><ellipse cx="524" cy="438" rx="22" ry="14" fill="#FFFFFF" opacity="0.3"/><ellipse cx="1180" cy="500" rx="150" ry="22" fill="#0E1014" opacity="0.1"/><ellipse cx="440" cy="660" rx="240" ry="26" fill="#0E1014" opacity="0.12"/>
</svg>