<svg xmlns="http://www.w3.org/2000/svg" viewBox="0 0 1600 900" width="1600" height="900">
<defs><radialGradient id="hglow234" cx="0.26" cy="0.36" r="0.9"><stop offset="0" stop-color="#FFFFFF" stop-opacity="0.95"/><stop offset="0.5" stop-color="#FFFFFF" stop-opacity="0.5"/><stop offset="1" stop-color="#FFFFFF" stop-opacity="0"/></radialGradient><linearGradient id="bar235" x1="0" y1="0" x2="0" y2="1"><stop offset="0" stop-color="#5A626F" stop-opacity="1"/><stop offset="0.5" stop-color="#0E1014" stop-opacity="1"/><stop offset="1" stop-color="#0E1014" stop-opacity="1"/></linearGradient><linearGradient id="cyl236" x1="0" y1="0" x2="1" y2="0"><stop offset="0" stop-color="#c2c7cf" stop-opacity="1"/><stop offset="0.55" stop-color="#5A626F" stop-opacity="1"/><stop offset="1" stop-color="#5A626F" stop-opacity="1"/></linearGradient><radialGradient id="cap237" cx="0.35" cy="0.35" r="0.8"><stop offset="0" stop-color="#c2c7cf" stop-opacity="1"/><stop offset="0.7" stop-color="#5A626F" stop-opacity="1"/><stop offset="1" stop-color="#5A626F" stop-opacity="1"/></radialGradient><linearGradient id="cyl238" x1="0" y1="0" x2="1" y2="0"><stop offset="0" stop-color="#c2c7cf" stop-opacity="1"/><stop offset="0.55" stop-color="#5A626F" stop-opacity="1"/><stop offset="1" stop-color="#5A626F" stop-opacity="1"/></linearGradient><radialGradient id="cap239" cx="0.35" cy="0.35" r="0.8"><stop offset="0" stop-color="#c2c7cf" stop-opacity="1"/><stop offset="0.7" stop-color="#5A626F" stop-opacity="1"/><stop offset="1" stop-color="#5A626F" stop-opacity="1"/></radialGradient><linearGradient id="cyl240" x1="0" y1="0" x2="1" y2="0"><stop offset="0" stop-color="#c2c7cf" stop-opacity="1"/><stop offset="0.55" stop-color="#5A626F" stop-opacity="1"/><stop offset="1" stop-color="#5A626F" stop-opacity="1"/></linearGradient><radialGradient id="cap241" cx="0.35" cy="0.35" r="0.8"><stop offset="0" stop-color="#c2c7cf" stop-opacity="1"/><stop offset="0.7" stop-color="#5A626F" stop-opacity="1"/><stop offset="1" stop-color="#5A626F" stop-opacity="1"/></radialGradient><linearGradient id="cyl242" x1="0" y1="0" x2="1" y2="0"><stop offset="0" stop-color="#c2c7cf" stop-opacity="1"/><stop offset="0.55" stop-color="#5A626F" stop-opacity="1"/><stop offset="1" stop-color="#5A626F" stop-opacity="1"/></linearGradient><radialGradient id="cap243" cx="0.35" cy="0.35" r="0.8"><stop offset="0" stop-color="#c2c7cf" stop-opacity="1"/><stop offset="0.7" stop-color="#5A626F" stop-opacity="1"/><stop offset="1" stop-color="#5A626F" stop-opacity="1"/></radialGradient><radialGradient id="sph244" cx="0.32" cy="0.28" r="0.85"><stop offset="0" stop-color="#5A626F" stop-opacity="1"/><stop offset="0.6" stop-color="#0E1014" stop-opacity="1"/><stop offset="1" stop-color="#0E1014" stop-opacity="1"/></radialGradient></defs>
<rect width="1600" height="900" fill="#afd4cc"/>
<rect width="1600" height="900" fill="url(#hglow234)"/>
<rect x="1000" y="350" width="360" height="60" rx="0" fill="url(#bar235)"/><ellipse cx="1000" cy="380" rx="30" ry="30" fill="#5A626F" stroke="#0E1014" stroke-width="3" stroke-opacity="0.14"/><ellipse cx="1360" cy="380" rx="30" ry="30" fill="#0E1014" stroke="#0E1014" stroke-width="3" stroke-opacity="0.14"/><ellipse cx="960" cy="500" rx="56" ry="56" fill="#5A626F" stroke="#0E1014" stroke-width="3" stroke-opacity="0.14"/><rect x="904" y="260" width="112" height="240" rx="0" fill="url(#cyl236)"/><line x1="904" y1="260" x2="904" y2="500" stroke="#0E1014" stroke-width="2" stroke-opacity="0.12"/><line x1="1016" y1="260" x2="1016" y2="500" stroke="#0E1014" stroke-width="2" stroke-opacity="0.12"/><ellipse cx="960" cy="260" rx="56" ry="56" fill="url(#cap237)" stroke="#0E1014" stroke-width="3" stroke-opacity="0.14"/><ellipse cx="1020" cy="500" rx="56" ry="56" fill="#5A626F" stroke="#0E1014" stroke-width="3" stroke-opacity="0.14"/><rect x="964" y="260" width="112" height="240" rx="0" fill="url(#cyl238)"/><line x1="964" y1="260" x2="964" y2="500" stroke="#0E1014" stroke-width="2" stroke-opacity="0.12"/><line x1="1076" y1="260" x2="1076" y2="500" stroke="#0E1014" stroke-width="2" stroke-opacity="0.12"/><ellipse cx="1020" cy="260" rx="56" ry="56" fill="url(#cap239)" stroke="#0E1014" stroke-width="3" stroke-opacity="0.14"/><ellipse cx="1340" cy="500" rx="56" ry="56" fill="#5A626F" stroke="#0E1014" stroke-width="3" stroke-opacity="0.14"/><rect x="1284" y="260" width="112" height="240" rx="0" fill="url(#cyl240)"/><line x1="1284" y1="260" x2="1284" y2="500" stroke="#0E1014" stroke-width="2" stroke-opacity="0.12"/><line x1="1396" y1="260" x2="1396" y2="500" stroke="#0E1014" stroke-width="2" stroke-opacity="0.12"/><ellipse cx="1340" cy="260" rx="56" ry="56" fill="url(#cap241)" stroke="#0E1014" stroke-width="3" stroke-opacity="0.14"/><ellipse cx="1400" cy="500" rx="56" ry="56" fill="#5A626F" stroke="#0E1014" stroke-width="3" stroke-opacity="0.14"/><rect x="1344" y="260" width="112" height="240" rx="0" fill="url(#cyl242)"/><line x1="1344" y1="260" x2="1344" y2="500" stroke="#0E1014" stroke-width="2" stroke-opacity="0.12"/><line x1="1456" y1="260" x2="1456" y2="500" stroke="#0E1014" stroke-width="2" stroke-opacity="0.12"/><ellipse cx="1400" cy="260" rx="56" ry="56" fill="url(#cap243)" stroke="#0E1014" stroke-width="3" stroke-opacity="0.14"/><ellipse cx="420" cy="604" rx="66" ry="15" fill="#0c0e11" stroke="#FFFFFF" stroke-width="3" stroke-opacity="0.1"/><circle cx="420" cy="480" r="130" fill="url(#sph244)" stroke="#0E1014" stroke-width="3" stroke-opacity="0.14"/><path d="M 362 372 C 362 300 478 300 478 372 L 478 404 C 478 426 456 426 456 404 L 456 376 C 456 350 384 350 384 376 L 384 404 C 384 426 362 426 362 404 Z" fill="#3c414b" stroke="#FFFFFF" stroke-width="3" stroke-opacity="0.1"/><ellipse cx="1170" cy="500" rx="220" ry="26" fill="#0E1014" opacity="0.1"/><ellipse cx="420" cy="660" rx="190" ry="26" fill="#0E1014" opacity="0.12"/>
</svg>