<svg xmlns="http://www.w3.org/2000/svg" viewBox="-3 -3 899.92 148" role="img" aria-labelledby="rs-lh-title"><title id="rs-lh-title">RebelShops</title><path d="M12.8 0V132" fill="none" stroke="#111214" stroke-width="25.61" stroke-linejoin="miter" stroke-linecap="butt"/><path d="M12.8 12.8H82.24L99.4 29.96V50.56L82.24 67.72H12.8" fill="none" stroke="#111214" stroke-width="25.61" stroke-linejoin="miter" stroke-linecap="butt"/><path d="M31.68 80.52H66L113.52 132H79.2Z" fill="#111214"/><path d="M165.22 16V116" fill="none" stroke="#111214" stroke-width="19.4" stroke-linejoin="miter" stroke-linecap="butt"/><path d="M165.22 25.7H217.82L230.82 38.7V54.3L217.82 67.3H165.22" fill="none" stroke="#111214" stroke-width="19.4" stroke-linejoin="miter" stroke-linecap="butt"/><path d="M300.09 101.96A25.3 20.8 0 0 1 257.22 87V73A25.3 20.8 0 0 1 307.82 73V75" fill="none" stroke="#111214" stroke-width="19.4" stroke-linejoin="miter" stroke-linecap="butt"/><path d="M257.22 75H307.82" fill="none" stroke="#111214" stroke-width="19.4" stroke-linejoin="miter" stroke-linecap="butt"/><path d="M335.22 12V116" fill="none" stroke="#111214" stroke-width="19.4" stroke-linejoin="miter" stroke-linecap="butt"/><path d="M335.22 52.2H358.02A27.8 20.8 0 0 1 385.82 73V87A27.8 20.8 0 0 1 358.02 107.8H335.22" fill="none" stroke="#111214" stroke-width="19.4" stroke-linejoin="miter" stroke-linecap="butt"/><path d="M456.09 101.96A25.3 20.8 0 0 1 413.22 87V73A25.3 20.8 0 0 1 463.82 73V75" fill="none" stroke="#111214" stroke-width="19.4" stroke-linejoin="miter" stroke-linecap="butt"/><path d="M413.22 75H463.82" fill="none" stroke="#111214" stroke-width="19.4" stroke-linejoin="miter" stroke-linecap="butt"/><path d="M491.22 12V116" fill="none" stroke="#111214" stroke-width="19.4" stroke-linejoin="miter" stroke-linecap="butt"/><path d="M581.22 46.7C581.22 33.7 568.22 25.7 549.42 25.7C534.62 25.7 521.62 33.7 521.62 46.7C521.62 58.7 533.62 64 552.42 68C570.22 72 581.22 74.3 581.22 86.3C581.22 98.3 568.22 106.3 548.42 106.3C533.62 106.3 521.62 98.3 521.62 85.3" fill="none" stroke="#111214" stroke-width="19.4" stroke-linejoin="miter" stroke-linecap="butt"/><path d="M608.62 12V116" fill="none" stroke="#111214" stroke-width="19.4" stroke-linejoin="miter" stroke-linecap="butt"/><path d="M608.62 73A25.3 20.8 0 0 1 659.22 73V116" fill="none" stroke="#111214" stroke-width="19.4" stroke-linejoin="miter" stroke-linecap="butt"/><path d="M685.62 73A25.3 20.8 0 0 1 736.22 73V87A25.3 20.8 0 0 1 685.62 87Z" fill="none" stroke="#111214" stroke-width="19.4" stroke-linejoin="miter" stroke-linecap="butt"/><path d="M763.62 44V142" fill="none" stroke="#111214" stroke-width="19.4" stroke-linejoin="miter" stroke-linecap="butt"/><path d="M763.62 52.2H786.42A27.8 20.8 0 0 1 814.22 73V87A27.8 20.8 0 0 1 786.42 107.8H763.62" fill="none" stroke="#111214" stroke-width="19.4" stroke-linejoin="miter" stroke-linecap="butt"/><path d="M884.22 67.2C884.22 57.2 874.22 52.2 861.42 52.2C850.62 52.2 840.62 58.2 840.62 67.2C840.62 76.2 849.62 78 863.42 82C876.22 86 884.22 84.8 884.22 93.8C884.22 102.8 874.22 107.8 860.42 107.8C849.62 107.8 840.62 102.8 840.62 92.8" fill="none" stroke="#111214" stroke-width="19.4" stroke-linejoin="miter" stroke-linecap="butt"/><path d="M179.52 77H205.52L241.52 116H215.52Z" fill="#111214"/></svg>
