<svg xmlns="http://www.w3.org/2000/svg" viewBox="-3 -3 744.4 350" role="img" aria-labelledby="rs-ls-title"><title id="rs-ls-title">RebelShops</title><path d="M305.93 0V190" fill="none" stroke="#0E1014" stroke-width="36.86" stroke-linejoin="miter" stroke-linecap="butt"/><path d="M305.93 18.43H405.87L430.57 43.13V72.77L405.87 97.47H305.93" fill="none" stroke="#0E1014" stroke-width="36.86" stroke-linejoin="miter" stroke-linecap="butt"/><path d="M333.1 115.9H382.5L450.9 190H401.5Z" fill="#F94E1B"/><path d="M9.7 244V344" fill="none" stroke="#0E1014" stroke-width="19.4" stroke-linejoin="miter" stroke-linecap="butt"/><path d="M9.7 253.7H62.3L75.3 266.7V282.3L62.3 295.3H9.7" fill="none" stroke="#0E1014" stroke-width="19.4" stroke-linejoin="miter" stroke-linecap="butt"/><path d="M144.57 329.96A25.3 20.8 0 0 1 101.7 315V301A25.3 20.8 0 0 1 152.3 301V303" fill="none" stroke="#0E1014" stroke-width="19.4" stroke-linejoin="miter" stroke-linecap="butt"/><path d="M101.7 303H152.3" fill="none" stroke="#0E1014" stroke-width="19.4" stroke-linejoin="miter" stroke-linecap="butt"/><path d="M179.7 240V344" fill="none" stroke="#0E1014" stroke-width="19.4" stroke-linejoin="miter" stroke-linecap="butt"/><path d="M179.7 280.2H202.5A27.8 20.8 0 0 1 230.3 301V315A27.8 20.8 0 0 1 202.5 335.8H179.7" fill="none" stroke="#0E1014" stroke-width="19.4" stroke-linejoin="miter" stroke-linecap="butt"/><path d="M300.57 329.96A25.3 20.8 0 0 1 257.7 315V301A25.3 20.8 0 0 1 308.3 301V303" fill="none" stroke="#0E1014" stroke-width="19.4" stroke-linejoin="miter" stroke-linecap="butt"/><path d="M257.7 303H308.3" fill="none" stroke="#0E1014" stroke-width="19.4" stroke-linejoin="miter" stroke-linecap="butt"/><path d="M335.7 240V344" fill="none" stroke="#0E1014" stroke-width="19.4" stroke-linejoin="miter" stroke-linecap="butt"/><path d="M425.7 274.7C425.7 261.7 412.7 253.7 393.9 253.7C379.1 253.7 366.1 261.7 366.1 274.7C366.1 286.7 378.1 292 396.9 296C414.7 300 425.7 302.3 425.7 314.3C425.7 326.3 412.7 334.3 392.9 334.3C378.1 334.3 366.1 326.3 366.1 313.3" fill="none" stroke="#0E1014" stroke-width="19.4" stroke-linejoin="miter" stroke-linecap="butt"/><path d="M453.1 240V344" fill="none" stroke="#0E1014" stroke-width="19.4" stroke-linejoin="miter" stroke-linecap="butt"/><path d="M453.1 301A25.3 20.8 0 0 1 503.7 301V344" fill="none" stroke="#0E1014" stroke-width="19.4" stroke-linejoin="miter" stroke-linecap="butt"/><path d="M530.1 301A25.3 20.8 0 0 1 580.7 301V315A25.3 20.8 0 0 1 530.1 315Z" fill="none" stroke="#0E1014" stroke-width="19.4" stroke-linejoin="miter" stroke-linecap="butt"/><path d="M608.1 272V370" fill="none" stroke="#0E1014" stroke-width="19.4" stroke-linejoin="miter" stroke-linecap="butt"/><path d="M608.1 280.2H630.9A27.8 20.8 0 0 1 658.7 301V315A27.8 20.8 0 0 1 630.9 335.8H608.1" fill="none" stroke="#0E1014" stroke-width="19.4" stroke-linejoin="miter" stroke-linecap="butt"/><path d="M728.7 295.2C728.7 285.2 718.7 280.2 705.9 280.2C695.1 280.2 685.1 286.2 685.1 295.2C685.1 304.2 694.1 306 707.9 310C720.7 314 728.7 312.8 728.7 321.8C728.7 330.8 718.7 335.8 704.9 335.8C694.1 335.8 685.1 330.8 685.1 320.8" fill="none" stroke="#0E1014" stroke-width="19.4" stroke-linejoin="miter" stroke-linecap="butt"/><path d="M24 305H50L86 344H60Z" fill="#0E1014"/></svg>
