<svg xmlns="http://www.w3.org/2000/svg" viewBox="0 0 800 800" width="800" height="800">
<defs><radialGradient id="glow20" cx="0.42" cy="0.34" r="0.8"><stop offset="0" stop-color="#FFFFFF" stop-opacity="0.95"/><stop offset="0.5" stop-color="#FFFFFF" stop-opacity="0.55"/><stop offset="1" stop-color="#FFFFFF" stop-opacity="0"/></radialGradient><linearGradient id="cyl21" x1="0" y1="0" x2="1" y2="0"><stop offset="0" stop-color="#858D9A" stop-opacity="1"/><stop offset="0.55" stop-color="#0E1014" stop-opacity="1"/><stop offset="1" stop-color="#0E1014" stop-opacity="1"/></linearGradient><radialGradient id="cap22" cx="0.35" cy="0.35" r="0.8"><stop offset="0" stop-color="#858D9A" stop-opacity="1"/><stop offset="0.7" stop-color="#0E1014" stop-opacity="1"/><stop offset="1" stop-color="#0E1014" stop-opacity="1"/></radialGradient></defs>
<rect width="800" height="800" fill="#acb2bc"/>
<rect width="800" height="800" fill="url(#glow20)"/>
<ellipse cx="400" cy="650" rx="149.72222222222223" ry="24" fill="#0E1014" opacity="0.16" filter="url(#blur23)"/>
<g transform="translate(-144.44,-227.50) scale(1.3611)"><ellipse cx="400" cy="600" rx="110" ry="30" fill="#0E1014" stroke="#0E1014" stroke-width="3" stroke-opacity="0.14"/><rect x="290" y="300" width="220" height="300" rx="0" fill="url(#cyl21)"/><line x1="290" y1="300" x2="290" y2="600" stroke="#0E1014" stroke-width="2" stroke-opacity="0.12"/><line x1="510" y1="300" x2="510" y2="600" stroke="#0E1014" stroke-width="2" stroke-opacity="0.12"/><ellipse cx="400" cy="300" rx="110" ry="30" fill="url(#cap22)" stroke="#0E1014" stroke-width="3" stroke-opacity="0.14"/><circle cx="400" cy="300" r="92" fill="none" stroke="#0b0d10" stroke-width="3" stroke-opacity="0.5"/><circle cx="400" cy="300" r="68" fill="none" stroke="#0b0d10" stroke-width="3" stroke-opacity="0.5"/><circle cx="400" cy="300" r="44" fill="none" stroke="#0b0d10" stroke-width="3" stroke-opacity="0.5"/><circle cx="400" cy="300" r="20" fill="#0a0b0e"/><ellipse cx="360" cy="270" rx="26" ry="12" fill="#FFFFFF" opacity="0.25"/><g><circle cx="400" cy="560" r="16.2" fill="#F94E1B" opacity="0.18"/><circle cx="400" cy="560" r="9" fill="#F94E1B"/><circle cx="397.3" cy="557.3" r="3.15" fill="#FFFFFF" opacity="0.7"/></g></g>
</svg>