<svg xmlns="http://www.w3.org/2000/svg" viewBox="0 0 800 800" width="800" height="800">
<defs><radialGradient id="wash113" cx="0.32" cy="0.26" r="0.95"><stop offset="0" stop-color="#FFFFFF" stop-opacity="1"/><stop offset="0.55" stop-color="#FBFAF8" stop-opacity="1"/><stop offset="1" stop-color="#FEF6E6" stop-opacity="1"/></radialGradient><radialGradient id="vig114" cx="0.5" cy="0.55" r="0.75"><stop offset="0" stop-color="#0E1014" stop-opacity="0"/><stop offset="1" stop-color="#0E1014" stop-opacity="0.06"/></radialGradient><linearGradient id="spoon115" x1="0" y1="0" x2="1" y2="1"><stop offset="0" stop-color="#f07a25" stop-opacity="1"/><stop offset="1" stop-color="#42160c" stop-opacity="1"/></linearGradient></defs>
<rect width="800" height="800" fill="#FBFAF8"/>
<rect width="800" height="800" fill="url(#wash113)"/>
<ellipse cx="400" cy="654" rx="210" ry="26" fill="#0E1014" opacity="0.13" filter="url(#blur116)"/>
<g transform="rotate(-18 400 560)"><path d="M 400 260 C 380 260 372 290 380 320 L 392 560 L 408 560 L 420 320 C 428 290 420 260 400 260 Z" fill="url(#spoon115)" stroke="#0E1014" stroke-width="3" stroke-opacity="0.14"/></g><g transform="rotate(0 400 560)"><path d="M 400 260 C 380 260 372 290 380 320 L 392 560 L 408 560 L 420 320 C 428 290 420 260 400 260 Z" fill="url(#spoon115)" stroke="#0E1014" stroke-width="3" stroke-opacity="0.14"/></g><g transform="rotate(18 400 560)"><path d="M 400 260 C 380 260 372 290 380 320 L 392 560 L 408 560 L 420 320 C 428 290 420 260 400 260 Z" fill="url(#spoon115)" stroke="#0E1014" stroke-width="3" stroke-opacity="0.14"/></g><g><circle cx="400" cy="250" r="12.6" fill="#DC3A0C" opacity="0.18"/><circle cx="400" cy="250" r="7" fill="#DC3A0C"/><circle cx="397.9" cy="247.9" r="2.4499999999999997" fill="#FFFFFF" opacity="0.7"/></g>
<rect width="800" height="800" fill="url(#vig114)"/>
</svg>