<svg xmlns="http://www.w3.org/2000/svg" viewBox="0 0 800 800" width="800" height="800">
<defs><radialGradient id="glow131" cx="0.42" cy="0.34" r="0.8"><stop offset="0" stop-color="#FFFFFF" stop-opacity="0.95"/><stop offset="0.5" stop-color="#FFFFFF" stop-opacity="0.55"/><stop offset="1" stop-color="#FFFFFF" stop-opacity="0"/></radialGradient><linearGradient id="spoon132" x1="0" y1="0" x2="1" y2="1"><stop offset="0" stop-color="#f07a25" stop-opacity="1"/><stop offset="1" stop-color="#42160c" stop-opacity="1"/></linearGradient></defs>
<rect width="800" height="800" fill="#fed0b7"/>
<rect width="800" height="800" fill="url(#glow131)"/>
<ellipse cx="400" cy="650" rx="152.44444444444446" ry="24" fill="#0E1014" opacity="0.16" filter="url(#blur133)"/>
<g transform="translate(-325.93,-389.93) scale(1.8148)"><g transform="rotate(-16 400 560)"><path d="M 392 560 L 391 400 C 388 392 384 388 384 372 C 384 344 392 322 400 322 C 408 322 416 344 416 372 C 416 388 412 392 409 400 L 408 560 Z" fill="url(#spoon132)" stroke="#0E1014" stroke-width="3" stroke-opacity="0.14"/></g><g transform="rotate(0 400 560)"><path d="M 392 560 L 391 400 C 388 392 384 388 384 372 C 384 344 392 322 400 322 C 408 322 416 344 416 372 C 416 388 412 392 409 400 L 408 560 Z" fill="url(#spoon132)" stroke="#0E1014" stroke-width="3" stroke-opacity="0.14"/></g><g transform="rotate(16 400 560)"><path d="M 392 560 L 391 400 C 388 392 384 388 384 372 C 384 344 392 322 400 322 C 408 322 416 344 416 372 C 416 388 412 392 409 400 L 408 560 Z" fill="url(#spoon132)" stroke="#0E1014" stroke-width="3" stroke-opacity="0.14"/><ellipse cx="396" cy="350" rx="5" ry="12" fill="#2e0f08"/><ellipse cx="404" cy="358" rx="5" ry="12" fill="#2e0f08"/></g></g>
</svg>