<svg xmlns="http://www.w3.org/2000/svg" viewBox="0 0 800 800" width="800" height="800">
<defs><radialGradient id="glow0" cx="0.42" cy="0.34" r="0.8"><stop offset="0" stop-color="#FFFFFF" stop-opacity="0.95"/><stop offset="0.5" stop-color="#FFFFFF" stop-opacity="0.55"/><stop offset="1" stop-color="#FFFFFF" stop-opacity="0"/></radialGradient><linearGradient id="cyl1" x1="0" y1="0" x2="1" y2="0"><stop offset="0" stop-color="#FF9871" stop-opacity="1"/><stop offset="0.55" stop-color="#bd340d" stop-opacity="1"/><stop offset="1" stop-color="#bd340d" stop-opacity="1"/></linearGradient><radialGradient id="cap2" cx="0.35" cy="0.35" r="0.8"><stop offset="0" stop-color="#FF9871" stop-opacity="1"/><stop offset="0.7" stop-color="#bd340d" stop-opacity="1"/><stop offset="1" stop-color="#bd340d" stop-opacity="1"/></radialGradient></defs>
<rect width="800" height="800" fill="#fed0b7"/>
<rect width="800" height="800" fill="url(#glow0)"/>
<ellipse cx="400" cy="650" rx="230" ry="24" fill="#0E1014" opacity="0.16" filter="url(#blur3)"/>
<g transform="translate(-439.17,-488.90) scale(1.9291)"><ellipse cx="400" cy="560" rx="90" ry="20" fill="#bd340d" stroke="#0E1014" stroke-width="3" stroke-opacity="0.14"/><rect x="310" y="380" width="180" height="180" rx="0" fill="url(#cyl1)"/><line x1="310" y1="380" x2="310" y2="560" stroke="#0E1014" stroke-width="2" stroke-opacity="0.12"/><line x1="490" y1="380" x2="490" y2="560" stroke="#0E1014" stroke-width="2" stroke-opacity="0.12"/><ellipse cx="400" cy="380" rx="90" ry="20" fill="url(#cap2)" stroke="#0E1014" stroke-width="3" stroke-opacity="0.14"/><path d="M 490 410 q 70 10 70 70 q 0 60 -70 70" fill="none" stroke="#bd340d" stroke-width="22" stroke-linecap="round"/><ellipse cx="400" cy="380" rx="90" ry="20" fill="#ffb295" stroke="#0E1014" stroke-width="3" stroke-opacity="0.14"/><ellipse cx="400" cy="380" rx="68" ry="13" fill="#972a0a"/><ellipse cx="360" cy="420" rx="18" ry="40" fill="#FFFFFF" opacity="0.22"/></g>
</svg>