<svg xmlns="http://www.w3.org/2000/svg" viewBox="0 0 800 800" width="800" height="800">
<defs><radialGradient id="wash127" cx="0.32" cy="0.26" r="0.95"><stop offset="0" stop-color="#FFFFFF" stop-opacity="1"/><stop offset="0.55" stop-color="#FBFAF8" stop-opacity="1"/><stop offset="1" stop-color="#E8F8F1" stop-opacity="1"/></radialGradient><radialGradient id="vig128" cx="0.5" cy="0.55" r="0.75"><stop offset="0" stop-color="#0E1014" stop-opacity="0"/><stop offset="1" stop-color="#0E1014" stop-opacity="0.06"/></radialGradient><linearGradient id="bar129" x1="0" y1="0" x2="0" y2="1"><stop offset="0" stop-color="#5A626F" stop-opacity="1"/><stop offset="0.5" stop-color="#0E1014" stop-opacity="1"/><stop offset="1" stop-color="#0E1014" stop-opacity="1"/></linearGradient><linearGradient id="cyl130" x1="0" y1="0" x2="1" y2="0"><stop offset="0" stop-color="#c2c7cf" stop-opacity="1"/><stop offset="0.55" stop-color="#5A626F" stop-opacity="1"/><stop offset="1" stop-color="#5A626F" stop-opacity="1"/></linearGradient><radialGradient id="cap131" cx="0.35" cy="0.35" r="0.8"><stop offset="0" stop-color="#c2c7cf" stop-opacity="1"/><stop offset="0.7" stop-color="#5A626F" stop-opacity="1"/><stop offset="1" stop-color="#5A626F" stop-opacity="1"/></radialGradient><linearGradient id="cyl132" x1="0" y1="0" x2="1" y2="0"><stop offset="0" stop-color="#c2c7cf" stop-opacity="1"/><stop offset="0.55" stop-color="#5A626F" stop-opacity="1"/><stop offset="1" stop-color="#5A626F" stop-opacity="1"/></linearGradient><radialGradient id="cap133" cx="0.35" cy="0.35" r="0.8"><stop offset="0" stop-color="#c2c7cf" stop-opacity="1"/><stop offset="0.7" stop-color="#5A626F" stop-opacity="1"/><stop offset="1" stop-color="#5A626F" stop-opacity="1"/></radialGradient><linearGradient id="cyl134" x1="0" y1="0" x2="1" y2="0"><stop offset="0" stop-color="#c2c7cf" stop-opacity="1"/><stop offset="0.55" stop-color="#5A626F" stop-opacity="1"/><stop offset="1" stop-color="#5A626F" stop-opacity="1"/></linearGradient><radialGradient id="cap135" cx="0.35" cy="0.35" r="0.8"><stop offset="0" stop-color="#c2c7cf" stop-opacity="1"/><stop offset="0.7" stop-color="#5A626F" stop-opacity="1"/><stop offset="1" stop-color="#5A626F" stop-opacity="1"/></radialGradient><linearGradient id="cyl136" x1="0" y1="0" x2="1" y2="0"><stop offset="0" stop-color="#c2c7cf" stop-opacity="1"/><stop offset="0.55" stop-color="#5A626F" stop-opacity="1"/><stop offset="1" stop-color="#5A626F" stop-opacity="1"/></linearGradient><radialGradient id="cap137" cx="0.35" cy="0.35" r="0.8"><stop offset="0" stop-color="#c2c7cf" stop-opacity="1"/><stop offset="0.7" stop-color="#5A626F" stop-opacity="1"/><stop offset="1" stop-color="#5A626F" stop-opacity="1"/></radialGradient></defs>
<rect width="800" height="800" fill="#FBFAF8"/>
<rect width="800" height="800" fill="url(#wash127)"/>
<ellipse cx="400" cy="654" rx="210" ry="26" fill="#0E1014" opacity="0.13" filter="url(#blur138)"/>
<rect x="300" y="434" width="200" height="52" rx="0" fill="url(#bar129)"/><ellipse cx="300" cy="460" rx="26" ry="26" fill="#5A626F" stroke="#0E1014" stroke-width="3" stroke-opacity="0.14"/><ellipse cx="500" cy="460" rx="26" ry="26" fill="#0E1014" stroke="#0E1014" stroke-width="3" stroke-opacity="0.14"/><ellipse cx="270" cy="520" rx="44" ry="44" fill="#5A626F" stroke="#0E1014" stroke-width="3" stroke-opacity="0.14"/><rect x="226" y="400" width="88" height="120" rx="0" fill="url(#cyl130)"/><line x1="226" y1="400" x2="226" y2="520" stroke="#0E1014" stroke-width="2" stroke-opacity="0.12"/><line x1="314" y1="400" x2="314" y2="520" stroke="#0E1014" stroke-width="2" stroke-opacity="0.12"/><ellipse cx="270" cy="400" rx="44" ry="44" fill="url(#cap131)" stroke="#0E1014" stroke-width="3" stroke-opacity="0.14"/><ellipse cx="320" cy="520" rx="44" ry="44" fill="#5A626F" stroke="#0E1014" stroke-width="3" stroke-opacity="0.14"/><rect x="276" y="400" width="88" height="120" rx="0" fill="url(#cyl132)"/><line x1="276" y1="400" x2="276" y2="520" stroke="#0E1014" stroke-width="2" stroke-opacity="0.12"/><line x1="364" y1="400" x2="364" y2="520" stroke="#0E1014" stroke-width="2" stroke-opacity="0.12"/><ellipse cx="320" cy="400" rx="44" ry="44" fill="url(#cap133)" stroke="#0E1014" stroke-width="3" stroke-opacity="0.14"/><ellipse cx="480" cy="520" rx="44" ry="44" fill="#5A626F" stroke="#0E1014" stroke-width="3" stroke-opacity="0.14"/><rect x="436" y="400" width="88" height="120" rx="0" fill="url(#cyl134)"/><line x1="436" y1="400" x2="436" y2="520" stroke="#0E1014" stroke-width="2" stroke-opacity="0.12"/><line x1="524" y1="400" x2="524" y2="520" stroke="#0E1014" stroke-width="2" stroke-opacity="0.12"/><ellipse cx="480" cy="400" rx="44" ry="44" fill="url(#cap135)" stroke="#0E1014" stroke-width="3" stroke-opacity="0.14"/><ellipse cx="530" cy="520" rx="44" ry="44" fill="#5A626F" stroke="#0E1014" stroke-width="3" stroke-opacity="0.14"/><rect x="486" y="400" width="88" height="120" rx="0" fill="url(#cyl136)"/><line x1="486" y1="400" x2="486" y2="520" stroke="#0E1014" stroke-width="2" stroke-opacity="0.12"/><line x1="574" y1="400" x2="574" y2="520" stroke="#0E1014" stroke-width="2" stroke-opacity="0.12"/><ellipse cx="530" cy="400" rx="44" ry="44" fill="url(#cap137)" stroke="#0E1014" stroke-width="3" stroke-opacity="0.14"/><g><circle cx="400" cy="480" r="14.4" fill="#0FA871" opacity="0.18"/><circle cx="400" cy="480" r="8" fill="#0FA871"/><circle cx="397.6" cy="477.6" r="2.8" fill="#FFFFFF" opacity="0.7"/></g>
<rect width="800" height="800" fill="url(#vig128)"/>
</svg>