<svg xmlns="http://www.w3.org/2000/svg" viewBox="0 0 800 800" width="800" height="800">
<defs><radialGradient id="wash138" cx="0.32" cy="0.26" r="0.95"><stop offset="0" stop-color="#FFFFFF" stop-opacity="1"/><stop offset="0.55" stop-color="#FBFAF8" stop-opacity="1"/><stop offset="1" stop-color="#E8F8F1" stop-opacity="1"/></radialGradient><radialGradient id="vig139" cx="0.5" cy="0.55" r="0.75"><stop offset="0" stop-color="#0E1014" stop-opacity="0"/><stop offset="1" stop-color="#0E1014" stop-opacity="0.06"/></radialGradient><linearGradient id="cyl140" x1="0" y1="0" x2="1" y2="0"><stop offset="0" stop-color="#4bbe95" stop-opacity="1"/><stop offset="0.55" stop-color="#0f7a55" stop-opacity="1"/><stop offset="1" stop-color="#0f7a55" stop-opacity="1"/></linearGradient><radialGradient id="cap141" cx="0.35" cy="0.35" r="0.8"><stop offset="0" stop-color="#4bbe95" stop-opacity="1"/><stop offset="0.7" stop-color="#0f7a55" stop-opacity="1"/><stop offset="1" stop-color="#0f7a55" stop-opacity="1"/></radialGradient></defs>
<rect width="800" height="800" fill="#FBFAF8"/>
<rect width="800" height="800" fill="url(#wash138)"/>
<ellipse cx="400" cy="654" rx="210" ry="26" fill="#0E1014" opacity="0.13" filter="url(#blur142)"/>
<ellipse cx="400" cy="560" rx="54" ry="54" fill="#0f7a55" stroke="#0E1014" stroke-width="3" stroke-opacity="0.14"/><rect x="346" y="340" width="108" height="220" rx="0" fill="url(#cyl140)"/><line x1="346" y1="340" x2="346" y2="560" stroke="#0E1014" stroke-width="2" stroke-opacity="0.12"/><line x1="454" y1="340" x2="454" y2="560" stroke="#0E1014" stroke-width="2" stroke-opacity="0.12"/><ellipse cx="400" cy="340" rx="54" ry="54" fill="url(#cap141)" stroke="#0E1014" stroke-width="3" stroke-opacity="0.14"/><path d="M 400 340 A 54 54 0 0 1 400 448" fill="none" stroke="#FFFFFF" stroke-width="6" stroke-opacity="0.35"/><path d="M 470 400 q 90 20 70 200" fill="none" stroke="#5A626F" stroke-width="30" stroke-linecap="round" opacity="0.9"/><g><circle cx="400" cy="340" r="14.4" fill="#F94E1B" opacity="0.18"/><circle cx="400" cy="340" r="8" fill="#F94E1B"/><circle cx="397.6" cy="337.6" r="2.8" fill="#FFFFFF" opacity="0.7"/></g>
<rect width="800" height="800" fill="url(#vig139)"/>
</svg>